<mxfile host="app.diagrams.net" modified="2022-03-12T06:52:47.338Z" agent="5.0 (Windows NT 10.0; Win64; x64) AppleWebKit/537.36 (KHTML, like Gecko) Chrome/99.0.4844.51 Safari/537.36" etag="LccTsnSP_ckOch6Ax0ir" version="17.1.2" type="github">
  <diagram id="C5RBs43oDa-KdzZeNtuy" name="Page-1">
    <mxGraphModel dx="1221" dy="644" grid="1" gridSize="10" guides="1" tooltips="1" connect="1" arrows="1" fold="1" page="1" pageScale="1" pageWidth="827" pageHeight="1169" math="0" shadow="0">
      <root>
        <mxCell id="WIyWlLk6GJQsqaUBKTNV-0" />
        <mxCell id="WIyWlLk6GJQsqaUBKTNV-1" parent="WIyWlLk6GJQsqaUBKTNV-0" />
        <mxCell id="fjX3nqxEw3z1wQbl_l-2-21" value="" style="edgeStyle=orthogonalEdgeStyle;orthogonalLoop=1;jettySize=auto;html=1;labelBackgroundColor=none;rounded=0;fontColor=#1A1A1A;" edge="1" parent="WIyWlLk6GJQsqaUBKTNV-1" source="XriyLiKgAWmnWQzuMDyW-6" target="fjX3nqxEw3z1wQbl_l-2-20">
          <mxGeometry relative="1" as="geometry" />
        </mxCell>
        <mxCell id="XriyLiKgAWmnWQzuMDyW-6" value="通知被评论者" style="whiteSpace=wrap;html=1;labelBackgroundColor=none;rounded=0;fontColor=#1A1A1A;" parent="WIyWlLk6GJQsqaUBKTNV-1" vertex="1">
          <mxGeometry x="110" y="670" width="130" height="50" as="geometry" />
        </mxCell>
        <mxCell id="fjX3nqxEw3z1wQbl_l-2-3" value="" style="edgeStyle=orthogonalEdgeStyle;orthogonalLoop=1;jettySize=auto;html=1;labelBackgroundColor=none;rounded=0;fontColor=#1A1A1A;" edge="1" parent="WIyWlLk6GJQsqaUBKTNV-1" source="fjX3nqxEw3z1wQbl_l-2-1" target="fjX3nqxEw3z1wQbl_l-2-2">
          <mxGeometry relative="1" as="geometry" />
        </mxCell>
        <mxCell id="fjX3nqxEw3z1wQbl_l-2-1" value="开始" style="ellipse;whiteSpace=wrap;html=1;labelBackgroundColor=none;rounded=0;fontColor=#1A1A1A;" vertex="1" parent="WIyWlLk6GJQsqaUBKTNV-1">
          <mxGeometry x="117" y="80" width="117" height="50" as="geometry" />
        </mxCell>
        <mxCell id="fjX3nqxEw3z1wQbl_l-2-6" value="" style="edgeStyle=orthogonalEdgeStyle;orthogonalLoop=1;jettySize=auto;html=1;labelBackgroundColor=none;rounded=0;fontColor=#1A1A1A;" edge="1" parent="WIyWlLk6GJQsqaUBKTNV-1" source="fjX3nqxEw3z1wQbl_l-2-2" target="fjX3nqxEw3z1wQbl_l-2-5">
          <mxGeometry relative="1" as="geometry" />
        </mxCell>
        <mxCell id="fjX3nqxEw3z1wQbl_l-2-2" value="选择某篇帖子&lt;br&gt;" style="whiteSpace=wrap;html=1;labelBackgroundColor=none;rounded=0;fontColor=#1A1A1A;" vertex="1" parent="WIyWlLk6GJQsqaUBKTNV-1">
          <mxGeometry x="113.5" y="170" width="124" height="50" as="geometry" />
        </mxCell>
        <mxCell id="fjX3nqxEw3z1wQbl_l-2-8" value="" style="edgeStyle=orthogonalEdgeStyle;orthogonalLoop=1;jettySize=auto;html=1;labelBackgroundColor=none;rounded=0;fontColor=#1A1A1A;" edge="1" parent="WIyWlLk6GJQsqaUBKTNV-1" target="fjX3nqxEw3z1wQbl_l-2-7">
          <mxGeometry relative="1" as="geometry">
            <mxPoint x="175" y="310" as="sourcePoint" />
          </mxGeometry>
        </mxCell>
        <mxCell id="fjX3nqxEw3z1wQbl_l-2-5" value="&lt;span&gt;展示帖子详情页&lt;/span&gt;" style="whiteSpace=wrap;html=1;labelBackgroundColor=none;rounded=0;fontColor=#1A1A1A;" vertex="1" parent="WIyWlLk6GJQsqaUBKTNV-1">
          <mxGeometry x="111" y="260" width="130" height="50" as="geometry" />
        </mxCell>
        <mxCell id="fjX3nqxEw3z1wQbl_l-2-10" value="" style="edgeStyle=orthogonalEdgeStyle;orthogonalLoop=1;jettySize=auto;html=1;labelBackgroundColor=none;rounded=0;fontColor=#1A1A1A;" edge="1" parent="WIyWlLk6GJQsqaUBKTNV-1" source="fjX3nqxEw3z1wQbl_l-2-7" target="fjX3nqxEw3z1wQbl_l-2-9">
          <mxGeometry relative="1" as="geometry" />
        </mxCell>
        <mxCell id="fjX3nqxEw3z1wQbl_l-2-7" value="对帖子进行评论&lt;br&gt;或对某个评论进行回复" style="whiteSpace=wrap;html=1;labelBackgroundColor=none;rounded=0;fontColor=#1A1A1A;" vertex="1" parent="WIyWlLk6GJQsqaUBKTNV-1">
          <mxGeometry x="110.5" y="360" width="130" height="60" as="geometry" />
        </mxCell>
        <mxCell id="fjX3nqxEw3z1wQbl_l-2-16" value="" style="edgeStyle=orthogonalEdgeStyle;orthogonalLoop=1;jettySize=auto;html=1;labelBackgroundColor=none;rounded=0;fontColor=#1A1A1A;" edge="1" parent="WIyWlLk6GJQsqaUBKTNV-1" source="fjX3nqxEw3z1wQbl_l-2-9" target="fjX3nqxEw3z1wQbl_l-2-15">
          <mxGeometry relative="1" as="geometry" />
        </mxCell>
        <mxCell id="fjX3nqxEw3z1wQbl_l-2-9" value="输入评论内容" style="whiteSpace=wrap;html=1;labelBackgroundColor=none;rounded=0;fontColor=#1A1A1A;" vertex="1" parent="WIyWlLk6GJQsqaUBKTNV-1">
          <mxGeometry x="110" y="470" width="130" height="50" as="geometry" />
        </mxCell>
        <mxCell id="fjX3nqxEw3z1wQbl_l-2-17" value="是" style="edgeStyle=orthogonalEdgeStyle;orthogonalLoop=1;jettySize=auto;html=1;labelBackgroundColor=none;rounded=0;fontColor=#1A1A1A;" edge="1" parent="WIyWlLk6GJQsqaUBKTNV-1" source="fjX3nqxEw3z1wQbl_l-2-15" target="XriyLiKgAWmnWQzuMDyW-6">
          <mxGeometry relative="1" as="geometry" />
        </mxCell>
        <mxCell id="fjX3nqxEw3z1wQbl_l-2-19" value="否" style="edgeStyle=orthogonalEdgeStyle;orthogonalLoop=1;jettySize=auto;html=1;entryX=1;entryY=0.5;entryDx=0;entryDy=0;labelBackgroundColor=none;rounded=0;fontColor=#1A1A1A;" edge="1" parent="WIyWlLk6GJQsqaUBKTNV-1" source="fjX3nqxEw3z1wQbl_l-2-15" target="fjX3nqxEw3z1wQbl_l-2-5">
          <mxGeometry relative="1" as="geometry">
            <Array as="points">
              <mxPoint x="290" y="588" />
              <mxPoint x="290" y="285" />
            </Array>
          </mxGeometry>
        </mxCell>
        <mxCell id="fjX3nqxEw3z1wQbl_l-2-15" value="提交评论" style="rhombus;whiteSpace=wrap;html=1;labelBackgroundColor=none;rounded=0;fontColor=#1A1A1A;" vertex="1" parent="WIyWlLk6GJQsqaUBKTNV-1">
          <mxGeometry x="115" y="560" width="120" height="55" as="geometry" />
        </mxCell>
        <mxCell id="fjX3nqxEw3z1wQbl_l-2-20" value="结束" style="ellipse;whiteSpace=wrap;html=1;labelBackgroundColor=none;rounded=0;fontColor=#1A1A1A;" vertex="1" parent="WIyWlLk6GJQsqaUBKTNV-1">
          <mxGeometry x="110" y="750" width="130" height="60" as="geometry" />
        </mxCell>
        <mxCell id="fjX3nqxEw3z1wQbl_l-2-22" value="" style="edgeStyle=orthogonalEdgeStyle;orthogonalLoop=1;jettySize=auto;html=1;labelBackgroundColor=none;rounded=0;fontColor=#1A1A1A;" edge="1" parent="WIyWlLk6GJQsqaUBKTNV-1" source="fjX3nqxEw3z1wQbl_l-2-23" target="fjX3nqxEw3z1wQbl_l-2-37">
          <mxGeometry relative="1" as="geometry" />
        </mxCell>
        <mxCell id="fjX3nqxEw3z1wQbl_l-2-23" value="删除成功&lt;br&gt;更新相应帖子下的&lt;br&gt;评论列表" style="whiteSpace=wrap;html=1;labelBackgroundColor=none;rounded=0;fontColor=#1A1A1A;" vertex="1" parent="WIyWlLk6GJQsqaUBKTNV-1">
          <mxGeometry x="511" y="580" width="130" height="70" as="geometry" />
        </mxCell>
        <mxCell id="fjX3nqxEw3z1wQbl_l-2-24" value="" style="edgeStyle=orthogonalEdgeStyle;orthogonalLoop=1;jettySize=auto;html=1;labelBackgroundColor=none;rounded=0;fontColor=#1A1A1A;" edge="1" parent="WIyWlLk6GJQsqaUBKTNV-1" source="fjX3nqxEw3z1wQbl_l-2-25" target="fjX3nqxEw3z1wQbl_l-2-27">
          <mxGeometry relative="1" as="geometry" />
        </mxCell>
        <mxCell id="fjX3nqxEw3z1wQbl_l-2-25" value="开始" style="ellipse;whiteSpace=wrap;html=1;labelBackgroundColor=none;rounded=0;fontColor=#1A1A1A;" vertex="1" parent="WIyWlLk6GJQsqaUBKTNV-1">
          <mxGeometry x="517" y="80" width="117" height="50" as="geometry" />
        </mxCell>
        <mxCell id="fjX3nqxEw3z1wQbl_l-2-26" value="" style="edgeStyle=orthogonalEdgeStyle;orthogonalLoop=1;jettySize=auto;html=1;labelBackgroundColor=none;rounded=0;fontColor=#1A1A1A;" edge="1" parent="WIyWlLk6GJQsqaUBKTNV-1" source="fjX3nqxEw3z1wQbl_l-2-27" target="fjX3nqxEw3z1wQbl_l-2-29">
          <mxGeometry relative="1" as="geometry" />
        </mxCell>
        <mxCell id="fjX3nqxEw3z1wQbl_l-2-27" value="进入评论管理" style="whiteSpace=wrap;html=1;labelBackgroundColor=none;rounded=0;fontColor=#1A1A1A;" vertex="1" parent="WIyWlLk6GJQsqaUBKTNV-1">
          <mxGeometry x="513.5" y="170" width="124" height="50" as="geometry" />
        </mxCell>
        <mxCell id="fjX3nqxEw3z1wQbl_l-2-28" value="" style="edgeStyle=orthogonalEdgeStyle;orthogonalLoop=1;jettySize=auto;html=1;labelBackgroundColor=none;rounded=0;fontColor=#1A1A1A;" edge="1" parent="WIyWlLk6GJQsqaUBKTNV-1" target="fjX3nqxEw3z1wQbl_l-2-31">
          <mxGeometry relative="1" as="geometry">
            <mxPoint x="575" y="310" as="sourcePoint" />
          </mxGeometry>
        </mxCell>
        <mxCell id="fjX3nqxEw3z1wQbl_l-2-29" value="&lt;span&gt;展示已发布&lt;br&gt;评论列表&lt;/span&gt;" style="whiteSpace=wrap;html=1;labelBackgroundColor=none;rounded=0;fontColor=#1A1A1A;" vertex="1" parent="WIyWlLk6GJQsqaUBKTNV-1">
          <mxGeometry x="511" y="260" width="130" height="50" as="geometry" />
        </mxCell>
        <mxCell id="fjX3nqxEw3z1wQbl_l-2-38" style="edgeStyle=orthogonalEdgeStyle;orthogonalLoop=1;jettySize=auto;html=1;entryX=0.5;entryY=0;entryDx=0;entryDy=0;labelBackgroundColor=none;rounded=0;fontColor=#1A1A1A;" edge="1" parent="WIyWlLk6GJQsqaUBKTNV-1" source="fjX3nqxEw3z1wQbl_l-2-31" target="fjX3nqxEw3z1wQbl_l-2-36">
          <mxGeometry relative="1" as="geometry" />
        </mxCell>
        <mxCell id="fjX3nqxEw3z1wQbl_l-2-31" value="选择删除某个评论" style="whiteSpace=wrap;html=1;labelBackgroundColor=none;rounded=0;fontColor=#1A1A1A;" vertex="1" parent="WIyWlLk6GJQsqaUBKTNV-1">
          <mxGeometry x="510.5" y="360" width="130" height="60" as="geometry" />
        </mxCell>
        <mxCell id="fjX3nqxEw3z1wQbl_l-2-34" value="是" style="edgeStyle=orthogonalEdgeStyle;orthogonalLoop=1;jettySize=auto;html=1;labelBackgroundColor=none;rounded=0;fontColor=#1A1A1A;" edge="1" parent="WIyWlLk6GJQsqaUBKTNV-1" source="fjX3nqxEw3z1wQbl_l-2-36" target="fjX3nqxEw3z1wQbl_l-2-23">
          <mxGeometry relative="1" as="geometry" />
        </mxCell>
        <mxCell id="fjX3nqxEw3z1wQbl_l-2-35" value="否" style="edgeStyle=orthogonalEdgeStyle;orthogonalLoop=1;jettySize=auto;html=1;entryX=1;entryY=0.5;entryDx=0;entryDy=0;labelBackgroundColor=none;exitX=1;exitY=0.5;exitDx=0;exitDy=0;rounded=0;fontColor=#1A1A1A;" edge="1" parent="WIyWlLk6GJQsqaUBKTNV-1" source="fjX3nqxEw3z1wQbl_l-2-36" target="fjX3nqxEw3z1wQbl_l-2-29">
          <mxGeometry relative="1" as="geometry">
            <Array as="points">
              <mxPoint x="690" y="490" />
              <mxPoint x="690" y="285" />
            </Array>
            <mxPoint x="640" y="490" as="sourcePoint" />
          </mxGeometry>
        </mxCell>
        <mxCell id="fjX3nqxEw3z1wQbl_l-2-36" value="提交评论" style="rhombus;whiteSpace=wrap;html=1;labelBackgroundColor=none;rounded=0;fontColor=#1A1A1A;" vertex="1" parent="WIyWlLk6GJQsqaUBKTNV-1">
          <mxGeometry x="516" y="462.5" width="120" height="55" as="geometry" />
        </mxCell>
        <mxCell id="fjX3nqxEw3z1wQbl_l-2-37" value="结束" style="ellipse;whiteSpace=wrap;html=1;labelBackgroundColor=none;rounded=0;fontColor=#1A1A1A;" vertex="1" parent="WIyWlLk6GJQsqaUBKTNV-1">
          <mxGeometry x="511" y="700" width="130" height="60" as="geometry" />
        </mxCell>
      </root>
    </mxGraphModel>
  </diagram>
</mxfile>
